<svg width="750" height="128" viewBox="0 0 750 128" fill="none" xmlns="http://www.w3.org/2000/svg">
<path d="M112.204 1.45981C109.577 1.87461 107.364 3.53381 107.364 10.7237C107.364 17.9135 106.535 24.9651 107.364 90.3652C108.194 155.765 11.5456 126.868 49.1541 72.5288C50.4907 75.3863 52.4725 81.3088 53.9934 80.5483C55.5144 79.7878 41.5494 57.8726 63.119 54.6924C49.5689 59.5318 54.4912 75.3771 63.119 87.3234C64.4556 89.0286 66.8345 92.7775 67.1287 95.2045C67.423 97.6316 69.0645 95.4811 68.9262 92.854C69.848 94.4671 70.8066 98.9101 67.267 103.777C65.4695 105.851 69.6999 106.919 70.3089 108.34C70.7237 109.308 71.1385 108.847 71.415 108.34C71.3228 107.372 71.3044 105.547 71.9681 105.989C72.2446 106.957 71.6915 112.073 75.0099 110.552C78.3283 109.031 82.3381 106.681 81.0937 102.118C80.4903 99.9056 82.8911 100.873 82.8911 103.224C82.8911 105.989 86.4861 101.565 85.7947 95.7576C85.5182 90.4113 84.5024 79.0477 85.3799 77.2299C87.3157 73.2202 89.6662 51.0975 84.6886 47.6408C84.5503 48.5165 84.1355 50.3232 83.5825 50.5444C83.5825 48.747 83.5825 40.5893 82.0615 38.9301C81.4624 37.2248 80.2641 34.229 80.2641 32.5698C80.2641 31.8252 78.7431 32.5698 78.6049 33.1229C77.8214 34.5977 76.4756 38.5706 77.3605 42.6633C77.637 43.6311 70.5854 36.303 81.6467 23.1677C82.0615 26.7626 82.7529 33.5377 83.0294 33.9525C83.3059 34.3673 83.9973 33.9525 84.5503 32.9846C85.1034 32.0167 86.9009 29.5279 88.1453 28.9749C88.2559 27.4263 88.2835 16.623 88.2835 11.415L107.364 0.215412C108.839 -0.10721 111.872 -0.310001 112.204 1.45981Z" fill="#F06E00"/>
<path d="M78.8813 59.255C80.4022 60.9142 83.057 65.0622 81.5084 68.3806C78.4665 67.551 79.2961 60.3612 78.8813 59.255Z" fill="#F06E00"/>
<path d="M59.6623 33.3992H68.9261C68.9261 15.0097 47.9096 8.64946 34.3595 15.0097C41.2728 14.9175 56.012 18.4664 59.6623 33.3992Z" fill="#F06E00"/>
<path d="M29.5201 42.2482C18.3206 34.6436 2.55816 44.8753 1.5903 54.9688C5.04696 51.7886 13.896 45.8985 21.6389 47.7789C26.1741 44.6817 28.7827 42.8013 29.5201 42.2482Z" fill="#F06E00"/>
<path d="M51.3662 42.5249C41.411 42.9397 27.2525 50.3231 22.0537 59.9465C31.5287 51.1936 38.1287 47.559 51.3662 42.5249Z" fill="#EF6F00"/>
<path d="M55.5145 33.3992C50.9517 15.9777 28.4142 16.1159 18.1825 25.7946C24.5428 23.7206 39.0884 22.5592 46.3889 34.5054C46.9419 35.1691 48.4629 34.9663 49.1542 34.7819L55.5145 33.3992Z" fill="#F06E00"/>
<path d="M42.9322 36.1646C30.903 20.817 11.8222 30.6339 7.39771 39.8978C12.4675 37.2707 24.681 33.5375 32.977 39.6213C33.9449 40.0361 34.3597 39.8978 35.3276 39.483L42.3791 36.7177C42.5635 36.6255 42.9322 36.3858 42.9322 36.1646Z" fill="#F06E00"/>
<path d="M17.0762 51.6506C5.87657 52.342 -1.81106 59.6701 0.622432 75.709C5.18098 65.7953 8.79162 60.5252 17.0762 51.6506Z" fill="#EF6F00"/>
<path d="M72.9354 33.3993C73.1659 33.6297 73.6821 33.9523 73.9033 33.3993C74.1798 32.7079 75.5625 22.0614 84.5498 15.8394C78.7426 11.1383 60.3532 9.06436 54.8225 10.0322C59.0166 11.8297 67.9578 16.9732 70.1701 23.1675C72.2441 28.4217 72.9354 31.8784 72.9354 33.3993Z" fill="#F06E00"/>
<path d="M139.934 55.2984H199.078V73.4833H139.934V55.2984ZM141.634 106.284H208.765V124.809H119.54V5.84234H206.386V24.3671H141.634V106.284Z" fill="#F06E00"/>
<path d="M224.897 124.809V5.84234H246.991V106.114H309.193V124.809H224.897Z" fill="#F06E00"/>
<path d="M318.139 124.809V5.84234H367.085C377.622 5.84234 386.629 7.54187 394.107 10.9409C401.698 14.34 407.533 19.2119 411.612 25.5568C415.691 31.9017 417.731 39.4362 417.731 48.1604C417.731 56.8847 415.691 64.4192 411.612 70.7641C407.533 77.109 401.698 81.9809 394.107 85.38C386.629 88.779 377.622 90.4786 367.085 90.4786H330.375L340.232 80.1115V124.809H318.139ZM340.232 82.4908L330.375 71.7838H366.065C375.809 71.7838 383.117 69.7444 387.989 65.6655C392.974 61.4734 395.467 55.6383 395.467 48.1604C395.467 40.5693 392.974 34.7342 387.989 30.6554C383.117 26.5765 375.809 24.5371 366.065 24.5371H330.375L340.232 13.6601V82.4908Z" fill="#002D62"/>
<path d="M488.7 126.508C479.409 126.508 470.855 124.979 463.037 121.92C455.22 118.861 448.422 114.612 442.643 109.173C436.865 103.622 432.389 97.1633 429.217 89.7987C426.044 82.3208 424.458 74.1631 424.458 65.3256C424.458 56.4881 426.044 48.3871 429.217 41.0225C432.389 33.5446 436.865 27.0864 442.643 21.6479C448.422 16.0961 455.22 11.7907 463.037 8.73153C470.855 5.67239 479.353 4.14282 488.53 4.14282C497.821 4.14282 506.319 5.67239 514.023 8.73153C521.841 11.7907 528.639 16.0961 534.417 21.6479C540.196 27.0864 544.671 33.5446 547.844 41.0225C551.016 48.3871 552.602 56.4881 552.602 65.3256C552.602 74.1631 551.016 82.3208 547.844 89.7987C544.671 97.2766 540.196 103.735 534.417 109.173C528.639 114.612 521.841 118.861 514.023 121.92C506.319 124.979 497.878 126.508 488.7 126.508ZM488.53 107.134C494.535 107.134 500.087 106.114 505.186 104.075C510.284 102.035 514.703 99.1461 518.442 95.4072C522.181 91.5549 525.07 87.1362 527.109 82.1509C529.262 77.0523 530.338 71.4439 530.338 65.3256C530.338 59.2073 529.262 53.6556 527.109 48.6703C525.07 43.5717 522.181 39.153 518.442 35.414C514.703 31.5618 510.284 28.6159 505.186 26.5765C500.087 24.5371 494.535 23.5174 488.53 23.5174C482.525 23.5174 476.973 24.5371 471.875 26.5765C466.89 28.6159 462.471 31.5618 458.619 35.414C454.88 39.153 451.934 43.5717 449.781 48.6703C447.742 53.6556 446.722 59.2073 446.722 65.3256C446.722 71.3306 447.742 76.8824 449.781 81.9809C451.934 87.0795 454.88 91.5549 458.619 95.4072C462.358 99.1461 466.776 102.035 471.875 104.075C476.973 106.114 482.525 107.134 488.53 107.134Z" fill="#002D62"/>
<path d="M604.403 126.508C595.112 126.508 586.218 125.205 577.721 122.6C569.223 119.88 562.482 116.425 557.496 112.232L565.144 95.0673C569.903 98.8062 575.794 101.922 582.819 104.415C589.844 106.907 597.039 108.154 604.403 108.154C610.635 108.154 615.677 107.474 619.529 106.114C623.381 104.755 626.214 102.942 628.026 100.676C629.839 98.2964 630.746 95.6338 630.746 92.6879C630.746 89.0623 629.443 86.1731 626.837 84.0204C624.231 81.7543 620.832 79.9982 616.64 78.7519C612.561 77.3922 607.972 76.1459 602.874 75.0129C597.888 73.8799 592.846 72.5769 587.748 71.104C582.763 69.5178 578.174 67.535 573.982 65.1557C569.903 62.663 566.56 59.3773 563.954 55.2984C561.349 51.2196 560.046 46.0077 560.046 39.6628C560.046 33.2047 561.745 27.313 565.144 21.9878C568.656 16.5493 573.925 12.2439 580.95 9.07143C588.088 5.78569 597.095 4.14282 607.972 4.14282C615.11 4.14282 622.191 5.04924 629.216 6.86206C636.241 8.67488 642.359 11.2808 647.571 14.6799L640.603 31.845C635.278 28.6726 629.783 26.3499 624.118 24.877C618.452 23.2908 613.014 22.4977 607.802 22.4977C601.684 22.4977 596.699 23.2341 592.846 24.707C589.107 26.18 586.332 28.1061 584.519 30.4854C582.819 32.8647 581.969 35.584 581.969 38.6431C581.969 42.2688 583.216 45.2146 585.708 47.4806C588.314 49.6334 591.657 51.3329 595.736 52.5792C599.928 53.8255 604.573 55.0718 609.672 56.3182C614.77 57.4512 619.812 58.7541 624.797 60.2271C629.896 61.7 634.485 63.6261 638.564 66.0054C642.756 68.3848 646.098 71.6139 648.591 75.6927C651.197 79.7716 652.5 84.9268 652.5 91.1584C652.5 97.5032 650.743 103.395 647.231 108.833C643.832 114.159 638.563 118.464 631.425 121.75C624.288 124.922 615.28 126.508 604.403 126.508Z" fill="#002D62"/>
<path d="M688.383 124.809V24.5371H648.955V5.84234H749.906V24.5371H710.477V124.809H688.383Z" fill="#002D62"/>
</svg>
